<?xml version="1.0" encoding="UTF-8" standalone="no"?>
<svg viewBox="0 0 900 900" version="1.1" xmlns="http://www.w3.org/2000/svg" xmlns:xlink="http://www.w3.org/1999/xlink" xmlns:sketch="http://www.bohemiancoding.com/sketch/ns" x="0px" y="0px" style="enable-background:new 0 0 900 900;" xml:space="preserve">
    <!-- Generator: Sketch 3.4.4 (17249) - http://www.bohemiancoding.com/sketch -->
    <title>sublimetext</title>
    <desc>Created with Sketch.</desc>
    <defs></defs>
    <g id="Page-1" stroke="none" stroke-width="1" fill="none" fill-rule="evenodd" sketch:type="MSPage">
        <g id="sublimetext" sketch:type="MSLayerGroup">
            <g id="Group" sketch:type="MSShapeGroup">
                <path d="M450,888.616071 C332.8125,888.616071 222.723214,842.946429 139.821429,760.178571 C56.9196429,677.276786 11.3839286,567.1875 11.3839286,450 C11.3839286,332.8125 57.0535714,222.723214 139.821429,139.821429 C222.723214,56.9196429 332.8125,11.3839286 450,11.3839286 C567.1875,11.3839286 677.276786,57.0535714 760.178571,139.821429 C843.080357,222.723214 888.616071,332.8125 888.616071,450 C888.616071,567.1875 842.946429,677.276786 760.178571,760.178571 C677.410714,843.080357 567.1875,888.616071 450,888.616071 L450,888.616071 Z" id="Shape" fill="#474747"></path>
                <path d="M450,22.0982143 C686.383929,22.0982143 877.901786,213.75 877.901786,450 C877.901786,686.25 686.383929,877.901786 450,877.901786 C213.616071,877.901786 22.0982143,686.383929 22.0982143,450 C22.0982143,213.616071 213.616071,22.0982143 450,22.0982143 L450,22.0982143 Z M450,0.669642857 C389.330357,0.669642857 330.535714,12.5892857 275.089286,36.0267857 C221.517857,58.6607143 173.571429,91.0714286 132.321429,132.321429 C91.0714286,173.571429 58.6607143,221.651786 36.0267857,275.089286 C12.5892857,330.535714 0.669642857,389.330357 0.669642857,450 C0.669642857,510.669643 12.5892857,569.464286 36.0267857,624.910714 C58.6607143,678.482143 91.0714286,726.428571 132.321429,767.678571 C173.571429,808.928571 221.651786,841.339286 275.089286,863.973214 C330.535714,887.410714 389.330357,899.330357 450,899.330357 C510.669643,899.330357 569.464286,887.410714 624.910714,863.973214 C678.482143,841.339286 726.428571,808.928571 767.678571,767.678571 C808.928571,726.428571 841.339286,678.348214 863.973214,624.910714 C887.410714,569.464286 899.330357,510.669643 899.330357,450 C899.330357,389.330357 887.410714,330.535714 863.973214,275.089286 C841.339286,221.517857 808.928571,173.571429 767.678571,132.321429 C726.428571,91.0714286 678.348214,58.6607143 624.910714,36.0267857 C569.464286,12.5892857 510.669643,0.669642857 450,0.669642857 L450,0.669642857 L450,0.669642857 Z" id="Shape" fill="#EEEEEE"></path>
            </g>
            <path d="M568.794643,192.589286 L859.285714,575.223214" id="Shape" sketch:type="MSShapeGroup"></path>
            <path d="M401.203123,172.098215 L337.5,286.607143 L380.357143,392.410714 L568.794643,514.285714 L555.803571,665.625 L372.321429,713.839286 L271.741071,709.955357 L439.553571,877.767857 C443.035714,877.901786 446.517857,877.901786 450.133929,877.901786 C686.517857,877.901786 878.035714,686.25 878.035714,450 L878.035714,446.651786 L603.348214,172.098214 L401.203123,172.098215 Z" id="Shape" fill="#303030" sketch:type="MSShapeGroup"></path>
            <path d="M270.784885,710.558036 C302.12417,731.450893 363.932206,747.991071 420.517028,747.991071 C558.932206,747.991071 625.963456,669.642857 625.963456,579.107143 C625.963456,492.924107 575.472385,445.044643 476.231313,406.741071 C395.271492,375.401786 359.579528,348.415179 359.579528,293.571429 C359.579528,253.526786 390.048278,205.647321 470.137563,205.647321 C523.240242,205.647321 562.414349,223.058036 581.566135,233.504464 L602.458992,171.696429 C576.34292,156.897321 532.816135,142.96875 472.74917,142.96875 C358.708992,142.96875 282.972385,210.870536 282.972385,302.276786 C282.972385,384.977679 342.168813,434.598214 437.927742,468.549107 C517.146492,499.017857 548.485778,530.357143 548.485778,585.200893 C548.485778,644.397321 503.21792,685.3125 425.740242,685.3125 C373.508099,685.3125 323.887563,667.901786 289.93667,647.008929 L270.784885,710.558036 Z" id="S" fill="#FF8100" sketch:type="MSShapeGroup"></path>
        </g>
    </g>
</svg>
