<?xml version="1.0" encoding="UTF-8" standalone="no"?>
<svg width="650px" height="650px" viewBox="0 0 650 650" version="1.1" xmlns="http://www.w3.org/2000/svg" xmlns:xlink="http://www.w3.org/1999/xlink" xmlns:sketch="http://www.bohemiancoding.com/sketch/ns">
    <!-- Generator: Sketch 3.4.4 (17249) - http://www.bohemiancoding.com/sketch -->
    <title>sleepnumber-logo</title>
    <desc>Created with Sketch.</desc>
    <defs></defs>
    <g id="Page-1" stroke="none" stroke-width="1" fill="none" fill-rule="evenodd" sketch:type="MSPage">
        <g id="sleepnumber-logo" sketch:type="MSLayerGroup">
            <g id="Group" sketch:type="MSShapeGroup">
                <path d="M325,641.778274 C240.364583,641.778274 160.855655,608.794643 100.982143,549.017857 C41.108631,489.144345 8.22172619,409.635417 8.22172619,325 C8.22172619,240.364583 41.2053571,160.855655 100.982143,100.982143 C160.855655,41.108631 240.364583,8.22172619 325,8.22172619 C409.635417,8.22172619 489.144345,41.2053571 549.017857,100.982143 C608.891369,160.855655 641.778274,240.364583 641.778274,325 C641.778274,409.635417 608.794643,489.144345 549.017857,549.017857 C489.241071,608.891369 409.635417,641.778274 325,641.778274 L325,641.778274 Z" id="Shape" fill="#23527C"></path>
                <path d="M325,15.9598214 C495.721726,15.9598214 634.040179,154.375 634.040179,325 C634.040179,495.625 495.721726,634.040179 325,634.040179 C154.278274,634.040179 15.9598214,495.721726 15.9598214,325 C15.9598214,154.278274 154.278274,15.9598214 325,15.9598214 L325,15.9598214 Z M325,0.483630952 C281.183036,0.483630952 238.720238,9.0922619 198.675595,26.0193452 C159.985119,42.3660714 125.357143,65.7738095 95.5654762,95.5654762 C65.7738095,125.357143 42.3660714,160.081845 26.0193452,198.675595 C9.0922619,238.720238 0.483630952,281.183036 0.483630952,325 C0.483630952,368.816964 9.0922619,411.279762 26.0193452,451.324405 C42.3660714,490.014881 65.7738095,524.642857 95.5654762,554.434524 C125.357143,584.22619 160.081845,607.633929 198.675595,623.980655 C238.720238,640.907738 281.183036,649.516369 325,649.516369 C368.816964,649.516369 411.279762,640.907738 451.324405,623.980655 C490.014881,607.633929 524.642857,584.22619 554.434524,554.434524 C584.22619,524.642857 607.633929,489.918155 623.980655,451.324405 C640.907738,411.279762 649.516369,368.816964 649.516369,325 C649.516369,281.183036 640.907738,238.720238 623.980655,198.675595 C607.633929,159.985119 584.22619,125.357143 554.434524,95.5654762 C524.642857,65.7738095 489.918155,42.3660714 451.324405,26.0193452 C411.279762,9.0922619 368.816964,0.483630952 325,0.483630952 L325,0.483630952 L325,0.483630952 Z" id="Shape" fill="#EEEEEE"></path>
            </g>
            <path d="M325,117.328869 L185.037202,306.622024 L464.962798,306.622024 L325,117.328869 Z" id="Shape" stroke="#EEEEEE" stroke-width="16" fill="#23527C" sketch:type="MSShapeGroup"></path>
            <path d="M464.962798,342.410714 L325,531.703869 L185.037202,342.410714 L464.962798,342.410714 Z" id="Shape" stroke="#EEEEEE" stroke-width="16" fill="#23527C" sketch:type="MSShapeGroup"></path>
        </g>
    </g>
</svg>