<?xml version="1.0" encoding="UTF-8" standalone="no"?>
<svg width="650px" height="650px" viewBox="0 0 650 650" version="1.1" xmlns="http://www.w3.org/2000/svg" xmlns:xlink="http://www.w3.org/1999/xlink" xmlns:sketch="http://www.bohemiancoding.com/sketch/ns">
    <!-- Generator: Sketch 3.4.4 (17249) - http://www.bohemiancoding.com/sketch -->
    <title>capella-logo</title>
    <desc>Created with Sketch.</desc>
    <defs></defs>
    <g id="Page-1" stroke="none" stroke-width="1" fill="none" fill-rule="evenodd" sketch:type="MSPage">
        <g id="capella-logo" sketch:type="MSLayerGroup">
            <g id="Group" transform="translate(109.300595, 122.842262)" fill="#000000" sketch:type="MSShapeGroup">
                <path d="M44.1071429,52.2321429 L27.2767857,43.139881 L10.3497024,51.8452381 L13.8318452,33.0803571 L0.290178571,19.6354167 L19.1517857,17.1205357 L27.7604167,0.193452381 L35.9821429,17.3139881 L54.84375,20.3125 L41.0119048,33.4672619 L44.1071429,52.2321429 Z" id="Shape"></path>
                <path d="M420.372024,52.2321429 L403.541667,43.139881 L386.614583,51.8452381 L390.096726,33.0803571 L376.55506,19.6354167 L395.416667,17.1205357 L404.025298,0.193452381 L412.247024,17.3139881 L431.108631,20.3125 L417.276786,33.4672619 L420.372024,52.2321429 Z" id="Shape"></path>
            </g>
            <path d="M642.261905,309.52381 L636.845238,403.154762 L601.540179,482.857143 L537.410714,562.752976 L425.111607,625.625 L269.38244,644.196429 L146.540179,588.095238 L58.7127976,491.369048 L26.1160714,418.050595 L12.7678571,325 L7.93154762,314.360119 L642.261905,307.589286" id="Shape" fill="#82101F" sketch:type="MSShapeGroup"></path>
            <path d="M5.0297619,321.130952 L324.806548,88.5044643 L642.261905,312.8125" id="Shape" stroke="#EEEEEE" stroke-width="16" fill="#82101F" sketch:type="MSShapeGroup"></path>
            <path d="M325,15.9598214 C495.721726,15.9598214 634.040179,154.375 634.040179,325 C634.040179,495.625 495.721726,634.040179 325,634.040179 C154.278274,634.040179 15.9598214,495.721726 15.9598214,325 C15.9598214,154.278274 154.278274,15.9598214 325,15.9598214 L325,15.9598214 Z M325,0.483630952 C281.183036,0.483630952 238.720238,9.0922619 198.675595,26.0193452 C159.985119,42.3660714 125.357143,65.7738095 95.5654762,95.5654762 C65.7738095,125.357143 42.3660714,160.081845 26.0193452,198.675595 C9.0922619,238.720238 0.483630952,281.183036 0.483630952,325 C0.483630952,368.816964 9.0922619,411.279762 26.0193452,451.324405 C42.3660714,490.014881 65.7738095,524.642857 95.5654762,554.434524 C125.357143,584.22619 160.081845,607.633929 198.675595,623.980655 C238.720238,640.907738 281.183036,649.516369 325,649.516369 C368.816964,649.516369 411.279762,640.907738 451.324405,623.980655 C490.014881,607.633929 524.642857,584.22619 554.434524,554.434524 C584.22619,524.642857 607.633929,489.918155 623.980655,451.324405 C640.907738,411.279762 649.516369,368.816964 649.516369,325 C649.516369,281.183036 640.907738,238.720238 623.980655,198.675595 C607.633929,159.985119 584.22619,125.357143 554.434524,95.5654762 C524.642857,65.7738095 489.918155,42.3660714 451.324405,26.0193452 C411.279762,9.0922619 368.816964,0.483630952 325,0.483630952 L325,0.483630952 L325,0.483630952 Z" id="Shape" fill="#000000" sketch:type="MSShapeGroup"></path>
            <path d="M430.926109,282.75 C405.85468,250.157143 366.576109,236.367857 326.461823,236.367857 C238.711823,236.367857 176.033251,304.896429 176.033251,391.810714 C176.033251,481.65 241.636823,547.253571 326.461823,547.253571 C373.67968,547.253571 412.122537,530.957143 438.447537,495.439286 L412.122537,473.292857 C391.22968,500.035714 362.397537,514.660714 326.461823,514.660714 C260.022537,514.660714 213.640394,460.339286 213.640394,391.810714 C213.640394,327.042857 260.440394,268.960714 326.461823,268.960714 C354.876109,268.960714 382.872537,281.078571 400.422537,304.896429 L430.926109,282.75 Z" id="C" fill="#FFFFFF" sketch:type="MSShapeGroup"></path>
        </g>
    </g>
</svg>