<?xml version="1.0" encoding="UTF-8" standalone="no"?>
<svg width="650px" height="650px" viewBox="0 0 650 650" version="1.1" xmlns="http://www.w3.org/2000/svg" xmlns:xlink="http://www.w3.org/1999/xlink" xmlns:sketch="http://www.bohemiancoding.com/sketch/ns">
    <!-- Generator: Sketch 3.4.4 (17249) - http://www.bohemiancoding.com/sketch -->
    <title>hellomoon-logo</title>
    <desc>Created with Sketch.</desc>
    <defs></defs>
    <g id="Page-1" stroke="none" stroke-width="1" fill="none" fill-rule="evenodd" sketch:type="MSPage">
        <g id="hellomoon-logo" sketch:type="MSLayerGroup">
            <g id="Group" sketch:type="MSShapeGroup">
                <path d="M325,641.778274 C240.364583,641.778274 160.855655,608.794643 100.982143,549.017857 C41.108631,489.144345 8.22172619,409.635417 8.22172619,325 C8.22172619,240.364583 41.2053571,160.855655 100.982143,100.982143 C160.855655,41.108631 240.364583,8.22172619 325,8.22172619 C409.635417,8.22172619 489.144345,41.2053571 549.017857,100.982143 C608.891369,160.855655 641.778274,240.364583 641.778274,325 C641.778274,409.635417 608.794643,489.144345 549.017857,549.017857 C489.241071,608.891369 409.635417,641.778274 325,641.778274 L325,641.778274 Z" id="Shape" fill="#000000"></path>
                <path d="M325,15.9598214 C495.721726,15.9598214 634.040179,154.375 634.040179,325 C634.040179,495.625 495.721726,634.040179 325,634.040179 C154.278274,634.040179 15.9598214,495.721726 15.9598214,325 C15.9598214,154.278274 154.278274,15.9598214 325,15.9598214 L325,15.9598214 Z M325,0.483630952 C281.183036,0.483630952 238.720238,9.0922619 198.675595,26.0193452 C159.985119,42.3660714 125.357143,65.7738095 95.5654762,95.5654762 C65.7738095,125.357143 42.3660714,160.081845 26.0193452,198.675595 C9.0922619,238.720238 0.483630952,281.183036 0.483630952,325 C0.483630952,368.816964 9.0922619,411.279762 26.0193452,451.324405 C42.3660714,490.014881 65.7738095,524.642857 95.5654762,554.434524 C125.357143,584.22619 160.081845,607.633929 198.675595,623.980655 C238.720238,640.907738 281.183036,649.516369 325,649.516369 C368.816964,649.516369 411.279762,640.907738 451.324405,623.980655 C490.014881,607.633929 524.642857,584.22619 554.434524,554.434524 C584.22619,524.642857 607.633929,489.918155 623.980655,451.324405 C640.907738,411.279762 649.516369,368.816964 649.516369,325 C649.516369,281.183036 640.907738,238.720238 623.980655,198.675595 C607.633929,159.985119 584.22619,125.357143 554.434524,95.5654762 C524.642857,65.7738095 489.918155,42.3660714 451.324405,26.0193452 C411.279762,9.0922619 368.816964,0.483630952 325,0.483630952 L325,0.483630952 L325,0.483630952 Z" id="Shape" fill="#26A9E0"></path>
            </g>
            <g id="Group" transform="translate(67.708333, 287.276786)" sketch:type="MSShapeGroup">
                <path d="M210.089286,15.1860119 C193.549107,15.1860119 180.200893,28.5342262 180.200893,45.0744048 C180.200893,61.6145833 193.549107,74.9627976 210.089286,74.9627976 C226.629464,74.9627976 239.977679,61.6145833 239.977679,45.0744048 C239.977679,28.5342262 226.629464,15.1860119 210.089286,15.1860119 L210.089286,15.1860119 Z M210.089286,60.0669643 C201.86756,60.0669643 195.193452,53.3928571 195.193452,45.171131 C195.193452,36.9494048 201.86756,30.2752976 210.089286,30.2752976 C218.311012,30.2752976 224.985119,36.9494048 224.985119,45.171131 C225.081845,53.3928571 218.311012,60.0669643 210.089286,60.0669643 L210.089286,60.0669643 Z" id="Shape" fill="#26A9E0"></path>
                <path d="M45.7514881,30.1785714 L45.7514881,30.1785714 L15.8630952,30.1785714 L15.8630952,0.290178571 L0.870535714,0.290178571 L0.870535714,74.2857143 L15.8630952,74.2857143 L15.8630952,45.0744048 L45.7514881,45.0744048 L45.7514881,74.2857143 L60.6473214,74.2857143 L60.6473214,30.1785714 L45.7514881,30.1785714 Z" id="Shape" fill="#26A9E0"></path>
                <rect id="Rectangle-path" fill="#FFFFFF" x="45.7514881" y="0.290178571" width="14.8958333" height="14.8958333"></rect>
                <path d="M513.422619,56.391369 L472.217262,15.1860119 L457.321429,15.1860119 L457.321429,74.9627976 L472.217262,74.9627976 L472.217262,36.3690476 L498.623512,62.7752976 L498.623512,75.0595238 L513.616071,75.0595238 L513.422619,56.391369 Z" id="Shape" fill="#FFFFFF"></path>
                <path d="M513.712798,15.0892857 L498.720238,15.0892857 L498.720238,29.985119 L513.712798,44.9776786 L513.712798,15.0892857 Z" id="Shape" fill="#FFFFFF"></path>
                <path d="M106.979167,57.0684524 C104.464286,58.90625 101.369048,60.0669643 98.0803571,60.0669643 C89.858631,60.0669643 83.1845238,53.3928571 83.1845238,45.171131 C83.1845238,36.9494048 89.858631,30.2752976 98.0803571,30.2752976 C105.625,30.2752976 111.815476,35.7886905 112.879464,43.0431548 L109.300595,43.0431548 L93.6309524,43.0431548 L107.075893,56.4880952 L125.744048,56.4880952 C127.19494,53.0059524 127.96875,49.233631 127.96875,45.2678571 C127.96875,28.7276786 114.620536,15.3794643 98.0803571,15.3794643 C81.5401786,15.3794643 68.1919643,28.7276786 68.1919643,45.2678571 C68.1919643,61.8080357 81.5401786,75.15625 98.0803571,75.15625 C105.528274,75.15625 112.395833,72.4479167 117.619048,67.9017857 L106.979167,57.0684524 L106.979167,57.0684524 Z" id="Shape" fill="#26A9E0"></path>
                <rect id="Rectangle-path" fill="#26A9E0" x="135.416667" y="0.290178571" width="14.8958333" height="74.672619"></rect>
                <rect id="Rectangle-path" fill="#26A9E0" x="158.534226" y="0.290178571" width="14.8958333" height="74.672619"></rect>
                <path d="M420.565476,15.3794643 C404.025298,15.3794643 390.677083,28.7276786 390.677083,45.2678571 C390.677083,61.8080357 404.025298,75.15625 420.565476,75.15625 C437.105655,75.15625 450.453869,61.8080357 450.453869,45.2678571 C450.453869,28.7276786 437.105655,15.3794643 420.565476,15.3794643 L420.565476,15.3794643 Z M420.565476,60.2604167 C412.34375,60.2604167 405.669643,53.5863095 405.669643,45.3645833 C405.669643,37.1428571 412.34375,30.46875 420.565476,30.46875 C428.787202,30.46875 435.46131,37.1428571 435.46131,45.3645833 C435.558036,53.4895833 428.787202,60.2604167 420.565476,60.2604167 L420.565476,60.2604167 Z" id="Shape" fill="#FFFFFF"></path>
                <path d="M324.22619,45.2678571 C324.22619,61.8080357 337.574405,75.15625 354.114583,75.15625 C370.654762,75.15625 384.002976,61.8080357 384.002976,45.2678571 C384.002976,28.7276786 370.654762,15.3794643 354.114583,15.3794643 C337.574405,15.3794643 324.22619,28.7276786 324.22619,45.2678571 L324.22619,45.2678571 Z M339.122024,45.2678571 C339.122024,37.046131 345.796131,30.3720238 354.017857,30.3720238 C362.239583,30.3720238 368.91369,37.046131 368.91369,45.2678571 C368.91369,53.4895833 362.239583,60.1636905 354.017857,60.1636905 C345.796131,60.2604167 339.122024,53.4895833 339.122024,45.2678571 L339.122024,45.2678571 Z" id="Shape" fill="#FFFFFF"></path>
                <path d="M302.366071,15.2827381 L302.366071,15.5729167 L302.269345,15.3794643 L281.956845,35.6919643 L261.837798,15.5729167 L261.837798,15.2827381 L246.941964,15.2827381 L246.941964,74.9627976 L261.837798,74.9627976 L261.837798,37.3363095 L281.956845,57.4553571 L302.366071,37.046131 L302.366071,74.9627976 L317.358631,74.9627976 L317.358631,15.2827381 L302.366071,15.2827381 Z" id="Shape" fill="#FFFFFF"></path>
            </g>
        </g>
    </g>
</svg>