<?xml version="1.0" encoding="UTF-8" standalone="no"?>
<svg width="650px" height="650px" viewBox="0 0 650 650" version="1.1" xmlns="http://www.w3.org/2000/svg" xmlns:xlink="http://www.w3.org/1999/xlink" xmlns:sketch="http://www.bohemiancoding.com/sketch/ns">
    <!-- Generator: Sketch 3.4.4 (17249) - http://www.bohemiancoding.com/sketch -->
    <title>space2burn-logo</title>
    <desc>Created with Sketch.</desc>
    <defs></defs>
    <g id="Page-1" stroke="none" stroke-width="1" fill="none" fill-rule="evenodd" sketch:type="MSPage">
        <g id="space2burn-logo" sketch:type="MSLayerGroup">
            <path d="M325,630.74422 C242.810694,630.74422 165.599711,598.713873 107.456647,540.66474 C49.3135838,482.521676 17.3771676,405.310694 17.3771676,323.121387 C17.3771676,240.932081 49.4075145,163.721098 107.456647,105.578035 C165.599711,47.4349711 242.810694,15.4985549 325,15.4985549 C407.189306,15.4985549 484.400289,47.5289017 542.543353,105.578035 C600.686416,163.721098 632.622832,240.932081 632.622832,323.121387 C632.622832,405.310694 600.592486,482.521676 542.543353,540.66474 C484.49422,598.807803 407.189306,630.74422 325,630.74422 L325,630.74422 Z" id="Shape" fill="#232323" sketch:type="MSShapeGroup"></path>
            <path d="M325,632.622832 C242.810694,632.622832 165.599711,600.592486 107.456647,542.543353 C49.3135838,484.400289 17.3771676,407.189306 17.3771676,325 C17.3771676,242.810694 49.4075145,165.599711 107.456647,107.456647 C165.599711,49.3135838 242.810694,17.3771676 325,17.3771676 C407.189306,17.3771676 484.400289,49.4075145 542.543353,107.456647 C600.686416,165.599711 632.622832,242.810694 632.622832,325 C632.622832,407.189306 600.592486,484.400289 542.543353,542.543353 C484.49422,600.686416 407.189306,632.622832 325,632.622832 L325,632.622832 Z" id="Shape" fill="#FF8746" sketch:type="MSShapeGroup"></path>
            <path d="M264.039017,306.119942 C265.729769,284.421965 266.856936,262.91185 256.336705,227.875723 C251.640173,212.189306 245.816474,198.569364 239.898844,187.203757 C240.180636,207.210983 238.302023,237.362717 226.278902,270.989884 C215.289017,301.893064 203.92341,312.976879 193.872832,341.437861 C186.546243,362.196532 178.75,392.348266 183.352601,445.700867 C269.299133,444.855491 433.489884,558.229769 461.199422,476.791908 C473.410405,441.004335 470.686416,395.541908 464.580925,354.58815 C448.988439,278.880058 432.174855,261.221098 412.16763,226.560694 C386.900289,182.695087 357.593931,151.791908 335.426301,131.784682 C344.913295,151.979769 355.527457,180.440751 360.599711,215.758671 C363.981214,239.241329 364.075145,260.093931 363.041908,277.189306 C352.991329,244.783237 337.962428,205.802023 315.043353,164.190751 C296.069364,129.718208 275.968208,100.975434 257.463873,77.8684971 C267.702312,102.572254 279.913295,140.050578 282.731214,187.109827 C286.112717,243.280347 273.24422,278.880058 264.039017,306.119942 L264.039017,306.119942 Z" id="Shape" fill="#FFFFFD" sketch:type="MSShapeGroup"></path>
            <circle id="Oval" fill="#FFFFFD" sketch:type="MSShapeGroup" cx="325" cy="431.705202" r="142.680636"></circle>
            <path d="M325,17.3771676 C407.189306,17.3771676 484.400289,49.4075145 542.543353,107.456647 C600.686416,165.599711 632.622832,242.810694 632.622832,325 C632.622832,407.189306 600.592486,484.400289 542.543353,542.543353 C484.49422,600.686416 407.189306,632.622832 325,632.622832 C242.810694,632.622832 165.599711,600.592486 107.456647,542.543353 C49.3135838,484.400289 17.3771676,407.189306 17.3771676,325 C17.3771676,242.810694 49.4075145,165.599711 107.456647,107.456647 C165.599711,49.3135838 242.810694,17.3771676 325,17.3771676 L325,17.3771676 Z M325,0.469653179 C238.302023,0.469653179 156.770231,34.1907514 95.5274566,95.5274566 C34.1907514,156.864162 0.469653179,238.395954 0.469653179,325 C0.469653179,411.697977 34.1907514,493.229769 95.5274566,554.472543 C156.864162,615.809249 238.395954,649.530347 325,649.530347 C411.791908,649.530347 493.323699,615.809249 554.472543,554.472543 C615.809249,493.135838 649.530347,411.604046 649.530347,325 C649.530347,238.302023 615.809249,156.770231 554.472543,95.5274566 C493.135838,34.1907514 411.604046,0.469653179 325,0.469653179 L325,0.469653179 L325,0.469653179 Z" id="Shape" fill="#EEEEEE" sketch:type="MSShapeGroup"></path>
        </g>
    </g>
</svg>